<?xml version="1.0" standalone="no"?>
<!DOCTYPE svg PUBLIC "-//W3C//DTD SVG 20010904//EN"
 "http://www.w3.org/TR/2001/REC-SVG-20010904/DTD/svg10.dtd">
<svg version="1.0" xmlns="http://www.w3.org/2000/svg"
 width="485.000000pt" height="485.000000pt" viewBox="0 0 485.000000 485.000000"
 preserveAspectRatio="xMidYMid meet">
<metadata>
Created by potrace 1.14, written by Peter Selinger 2001-2017
</metadata>
<g transform="translate(0.000000,485.000000) scale(0.100000,-0.100000)"
fill="#000000" stroke="none">
<path d="M2423 4400 c-3 -11 -9 -20 -14 -20 -5 0 -8 -3 -7 -7 1 -7 -149 -313
-222 -453 -13 -25 -25 -47 -25 -50 -1 -3 -37 -75 -80 -160 -43 -85 -79 -157
-80 -160 -4 -17 -301 -606 -307 -608 -5 -2 -8 -8 -8 -13 0 -13 -153 -323 -163
-330 -5 -3 -8 -9 -8 -13 1 -6 -119 -251 -169 -346 -13 -25 -25 -47 -25 -50 -5
-24 -121 -238 -127 -234 -4 3 -8 2 -8 -3 0 -4 -17 -9 -38 -10 -43 -1 -145 -35
-217 -71 -114 -57 -247 -185 -307 -297 -18 -33 -33 -64 -33 -70 0 -5 -3 -14
-6 -20 -4 -5 -14 -32 -23 -60 -41 -128 -39 -311 4 -432 12 -32 23 -62 24 -68
6 -25 41 -85 48 -85 5 0 7 -4 4 -8 -14 -24 222 -260 246 -246 4 3 8 1 8 -4 0
-7 60 -42 85 -48 6 -1 36 -12 67 -23 68 -25 128 -33 226 -32 104 1 132 4 132
13 0 4 6 5 13 2 8 -3 36 3 63 12 27 9 54 17 59 18 6 1 46 21 90 45 84 46 235
187 265 246 8 17 25 46 37 66 12 20 19 40 15 43 -3 4 -2 10 4 14 14 10 54 148
49 172 -2 11 1 20 7 20 6 0 8 3 5 7 -8 7 109 73 130 73 7 0 13 4 13 8 0 7 52
31 67 30 3 0 9 4 12 9 3 4 33 21 66 36 33 16 67 33 77 37 79 41 284 144 288
145 3 1 48 23 100 49 191 98 415 210 420 211 3 1 30 14 60 30 30 16 57 29 60
30 3 1 48 23 100 50 111 58 168 84 177 84 3 -1 9 3 12 8 6 8 418 215 423 212
2 -1 28 13 58 31 30 18 60 33 65 34 6 1 26 11 45 21 19 10 92 47 162 81 l127
63 -51 98 -50 98 -200 -101 c-110 -56 -201 -102 -204 -103 -2 0 -73 -36 -157
-78 -83 -42 -154 -77 -157 -78 -3 -1 -192 -95 -420 -210 -228 -115 -417 -209
-420 -210 -3 -1 -48 -23 -100 -50 -52 -27 -97 -49 -100 -50 -3 -1 -30 -14 -60
-30 -30 -16 -57 -29 -60 -30 -3 0 -25 -12 -50 -25 -25 -13 -47 -25 -50 -25 -3
0 -25 -12 -50 -25 -25 -13 -47 -25 -50 -25 -3 -1 -52 -25 -110 -55 -58 -30
-107 -54 -110 -55 -3 0 -19 -9 -37 -18 -18 -9 -36 -17 -40 -17 -5 0 -14 19
-21 43 -21 67 -64 157 -75 157 -6 0 -7 3 -4 6 3 4 -3 18 -14 32 l-20 26 1003
1003 1003 1003 -78 77 -77 78 -1003 -1003 -1003 -1003 -26 20 c-33 27 -136 75
-194 92 -24 7 -44 17 -44 22 0 4 10 27 22 50 12 23 23 44 23 47 1 3 46 93 100
200 54 107 99 197 100 200 1 3 23 48 50 100 27 52 49 97 50 100 1 3 14 30 30
60 16 30 30 57 30 60 2 7 93 190 130 260 16 30 30 57 30 60 2 7 43 90 160 320
54 107 99 197 100 200 1 3 25 52 55 110 30 58 54 107 55 110 0 3 12 25 25 50
13 25 25 47 25 50 1 3 23 48 50 100 27 52 49 97 50 100 1 3 22 47 48 99 26 52
44 97 40 101 -4 5 -48 28 -96 54 -83 43 -89 44 -94 26z m-993 -2694 c41 -15
87 -35 102 -46 15 -11 30 -20 33 -20 14 0 91 -80 127 -133 42 -61 93 -190 84
-213 -3 -7 -1 -16 4 -19 4 -3 6 -39 4 -80 -8 -152 -84 -299 -199 -388 -208
-159 -483 -146 -679 32 -36 33 -107 137 -99 145 4 3 2 6 -4 6 -5 0 -20 33 -33
72 -83 251 51 532 300 632 124 50 239 54 360 12z"/>
</g>
</svg>
